<?xml version="1.0" standalone="no"?>
<!DOCTYPE svg PUBLIC "-//W3C//DTD SVG 20010904//EN"
 "http://www.w3.org/TR/2001/REC-SVG-20010904/DTD/svg10.dtd">
<svg version="1.0" xmlns="http://www.w3.org/2000/svg"
 width="36.000000pt" height="36.000000pt" viewBox="0 0 210.000000 210.000000"
 preserveAspectRatio="xMidYMid meet">

<g transform="translate(0.000000,233.000000) scale(0.100000,-0.100000)"
fill="#000000" stroke="none">
<path d="M895 2046 c-402 -94 -671 -477 -625 -889 38 -337 272 -606 610 -703
90 -25 307 -26 400 0 399 110 656 483 610 888 -10 86 -44 207 -78 273 -25 50
-94 147 -136 194 -87 94 -216 174 -356 222 -84 28 -331 37 -425 15z m352 -72
c136 -30 257 -97 359 -199 229 -228 283 -570 136 -865 -63 -128 -187 -256
-307 -317 -234 -120 -470 -122 -697 -7 -190 96 -339 290 -384 498 -117 540
353 1009 893 890z"/>
<path d="M1022 1747 c-53 -30 -58 -51 -60 -259 l-2 -118 -145 0 c-201 0 -245
-21 -245 -120 0 -98 44 -120 244 -120 l145 0 3 -164 3 -165 29 -30 c37 -39 87
-49 132 -28 59 29 66 50 72 227 l5 160 158 0 158 0 36 31 c32 28 35 36 35 83
0 54 -17 84 -57 105 -13 7 -82 11 -177 11 l-156 0 0 155 c0 167 -7 198 -52
229 -27 19 -94 20 -126 3z"/>
<path d="M911 80 c0 -19 3 -29 6 -22 4 10 9 9 20 -5 15 -18 14 -16 -13 35
l-14 27 1 -35z"/>
<path d="M1293 103 c9 -2 14 -9 11 -15 -4 -7 -2 -8 4 -4 20 12 13 26 -10 25
-18 -1 -19 -2 -5 -6z"/>
<path d="M1393 103 c9 -2 14 -9 11 -15 -4 -7 -2 -8 4 -4 20 12 13 26 -10 25
-18 -1 -19 -2 -5 -6z"/>
<path d="M1522 85 c-23 -27 -29 -40 -12 -30 6 4 18 1 27 -7 15 -12 15 -11 3 9
-11 18 -12 24 -1 37 22 26 6 18 -17 -9z"/>
<path d="M1585 100 c-3 -5 -1 -10 4 -10 6 0 11 5 11 10 0 6 -2 10 -4 10 -3 0
-8 -4 -11 -10z"/>
<path d="M598 95 c-7 -7 3 -55 11 -55 4 0 6 13 3 30 -4 32 -5 33 -14 25z"/>
<path d="M630 77 c0 -14 4 -28 8 -31 9 -5 8 41 -1 51 -4 3 -7 -5 -7 -20z"/>
<path d="M790 77 c0 -14 4 -28 8 -31 9 -5 8 41 -1 51 -4 3 -7 -5 -7 -20z"/>
<path d="M1562 75 c0 -16 2 -22 5 -12 2 9 2 23 0 30 -3 6 -5 -1 -5 -18z"/>
<path d="M501 73 c0 -11 3 -13 6 -5 2 6 9 10 14 6 5 -3 9 0 9 5 0 6 -7 11 -15
11 -8 0 -15 -8 -14 -17z"/>
<path d="M665 80 c-3 -5 -1 -10 4 -10 6 0 11 5 11 10 0 6 -2 10 -4 10 -3 0 -8
-4 -11 -10z"/>
<path d="M823 74 c-8 -23 12 -40 31 -25 10 8 16 9 21 1 3 -5 12 -10 18 -9 9 0
9 2 0 6 -16 6 -17 33 -1 33 6 0 8 3 5 6 -4 4 -13 1 -21 -5 -10 -8 -16 -9 -21
-1 -9 15 -25 12 -32 -6z m29 -9 c0 -5 -5 -11 -11 -13 -6 -2 -11 4 -11 13 0 9
5 15 11 13 6 -2 11 -8 11 -13z"/>
<path d="M1034 79 c-5 -8 -3 -9 6 -4 7 4 16 2 22 -6 8 -12 9 -12 6 0 -6 20
-24 25 -34 10z"/>
<path d="M1082 65 c0 -16 2 -22 5 -12 2 9 2 23 0 30 -3 6 -5 -1 -5 -18z"/>
<path d="M1128 65 c6 -32 12 -32 12 0 0 14 -4 25 -9 25 -4 0 -6 -11 -3 -25z"/>
<path d="M992 54 c10 -10 20 -16 22 -13 3 3 -5 11 -17 18 -21 13 -21 12 -5 -5z"/>
<path d="M465 50 c-3 -5 -1 -10 4 -10 6 0 11 5 11 10 0 6 -2 10 -4 10 -3 0 -8
-4 -11 -10z"/>
<path d="M550 48 c0 -4 4 -8 9 -8 6 0 12 4 15 8 3 5 -1 9 -9 9 -8 0 -15 -4
-15 -9z"/>
<path d="M667 49 c7 -7 15 -10 18 -7 3 3 -2 9 -12 12 -14 6 -15 5 -6 -5z"/>
<path d="M1037 49 c7 -7 15 -10 18 -7 3 3 -2 9 -12 12 -14 6 -15 5 -6 -5z"/>
<path d="M1238 43 c6 -2 18 -2 25 0 6 3 1 5 -13 5 -14 0 -19 -2 -12 -5z"/>
<path d="M1338 43 c6 -2 18 -2 25 0 6 3 1 5 -13 5 -14 0 -19 -2 -12 -5z"/>
<path d="M1438 43 c6 -2 18 -2 25 0 6 3 1 5 -13 5 -14 0 -19 -2 -12 -5z"/>
<path d="M1588 43 c6 -2 18 -2 25 0 6 3 1 5 -13 5 -14 0 -19 -2 -12 -5z"/>
<path d="M1638 43 c6 -2 18 -2 25 0 6 3 1 5 -13 5 -14 0 -19 -2 -12 -5z"/>
</g>
</svg>
